<svg width="12" height="12" viewBox="0 0 12 12" fill="none" xmlns="http://www.w3.org/2000/svg">
<path d="M5.18333 8.45L9.29583 4.3375L8.47917 3.52083L5.18333 6.81667L3.52083 5.15417L2.70417 5.97083L5.18333 8.45ZM1.91667 11.25C1.59583 11.25 1.32128 11.1359 1.093 10.9076C0.864722 10.6793 0.750389 10.4046 0.75 10.0833V1.91667C0.75 1.59583 0.864333 1.32128 1.093 1.093C1.32167 0.864722 1.59622 0.750389 1.91667 0.75H10.0833C10.4042 0.75 10.6789 0.864333 10.9076 1.093C11.1362 1.32167 11.2504 1.59622 11.25 1.91667V10.0833C11.25 10.4042 11.1359 10.6789 10.9076 10.9076C10.6793 11.1362 10.4046 11.2504 10.0833 11.25H1.91667Z" fill="#BA5112"/>
</svg>
